<?xml version="1.0" encoding="iso-8859-1"?>
<!-- Generator: Adobe Illustrator 19.0.0, SVG Export Plug-In . SVG Version: 6.00 Build 0)  -->
<svg xmlns="http://www.w3.org/2000/svg" xmlns:xlink="http://www.w3.org/1999/xlink" version="1.1" id="Layer_1" x="0px" y="0px" viewBox="0 0 463.358 463.358" style="enable-background:new 0 0 463.358 463.358;" xml:space="preserve" width="512px" height="512px">
<g>
	<g>
		<g>
			<path d="M190.958,376.031h223.558c4.142,0,7.5-3.358,7.5-7.5v-120.19c0-4.142-3.358-7.5-7.5-7.5H190.958     c-4.142,0-7.5,3.358-7.5,7.5v120.19C183.458,372.673,186.816,376.031,190.958,376.031z M198.458,255.841h208.558v105.19H198.458     V255.841z" fill="#FFFFFF"/>
			<path d="M455.858,384.033h-10.842V237.689c0-10.944-8.904-19.848-19.848-19.848H319.08v-27.85h21.254     c12.542,0,22.746-10.204,22.746-22.746V61.737c0-12.542-10.204-22.746-22.746-22.746h-57.508     c-12.542,0-22.746,10.204-22.746,22.746v27.254H24.7c-13.62,0-24.7,11.08-24.7,24.7v176.37c0,13.62,11.08,24.7,24.7,24.7h106.395     l-6.059,27.2H105.02c-4.142,0-7.5,3.358-7.5,7.5c0,4.142,3.358,7.5,7.5,7.5h55.438v27.072h-10.846c-4.142,0-7.5,3.358-7.5,7.5     c0,18.105,14.729,32.834,32.834,32.834h255.578c18.104,0,32.834-14.729,32.834-32.834     C463.358,387.391,460,384.033,455.858,384.033z M425.168,232.841c2.673,0,4.848,2.175,4.848,4.848v146.342H175.458v-34.532     c0-0.013,0.002-0.025,0.002-0.039c0-0.014-0.002-0.026-0.002-0.039V237.689c0-2.673,2.175-4.848,4.849-4.848H425.168z      M275.08,61.737c0-4.271,3.475-7.746,7.746-7.746h57.508c4.271,0,7.746,3.475,7.746,7.746v3.254h-73V61.737z M275.08,79.991h73     v67h-73V79.991z M275.08,161.991h73v5.254c0,4.271-3.475,7.746-7.746,7.746h-57.508c-4.271,0-7.746-3.475-7.746-7.746V161.991z      M15,113.691c0-5.349,4.351-9.7,9.7-9.7h235.38v63.254c0,12.542,10.204,22.746,22.746,22.746h21.254v27.85H180.307     c-10.944,0-19.849,8.904-19.849,19.848v27.302H15V113.691z M24.7,299.761c-5.349,0-9.7-4.352-9.7-9.7v-10.07h145.458v19.77H24.7z      M140.404,341.96l6.059-27.2h13.995v27.2H140.404z M430.524,409.367H174.946c-7.156,0-13.342-4.237-16.18-10.334h287.937     C443.866,405.13,437.68,409.367,430.524,409.367z" fill="#FFFFFF"/>
		</g>
	</g>
</g>
<g>
</g>
<g>
</g>
<g>
</g>
<g>
</g>
<g>
</g>
<g>
</g>
<g>
</g>
<g>
</g>
<g>
</g>
<g>
</g>
<g>
</g>
<g>
</g>
<g>
</g>
<g>
</g>
<g>
</g>
</svg>
