<svg version="1.1" id="Layer_1" xmlns="http://www.w3.org/2000/svg" xmlns:xlink="http://www.w3.org/1999/xlink" x="0px" y="0px"
   viewBox="0 0 512 512" style="enable-background:new 0 0 512 512; fill: #0082D0;" xml:space="preserve">
<g>
  <g>
    <g>
      <path d="M324.267,332.8c0-4.71-3.823-8.533-8.533-8.533H196.267c-4.71,0-8.533,3.823-8.533,8.533c0,4.71,3.823,8.533,8.533,8.533
        h119.467C320.444,341.333,324.267,337.51,324.267,332.8z"/>
      <path d="M435.2,148.267c-4.71,0-8.533,3.823-8.533,8.533v269.867H110.933c-4.71,0-8.533,3.823-8.533,8.533
        s3.823,8.533,8.533,8.533h315.733v25.6c0,14.114-11.486,25.6-25.6,25.6H110.933c-14.114,0-25.6-11.486-25.6-25.6v-230.4h315.733
        c4.71,0,8.533-3.823,8.533-8.533s-3.823-8.533-8.533-8.533H85.333V155.87c0-4.719-3.823-8.533-8.533-8.533
        s-8.533,3.814-8.533,8.533v313.464c0,23.526,19.14,42.667,42.667,42.667h290.133c23.526,0,42.667-19.14,42.667-42.667V156.8
        C443.733,152.09,439.91,148.267,435.2,148.267z"/>
      <path d="M435.2,68.267c4.71,0,8.533-3.823,8.533-8.533V25.6c0-14.114-11.486-25.6-25.6-25.6H93.867
        c-14.114,0-25.6,11.486-25.6,25.6v34.133c0,4.71,3.823,8.533,8.533,8.533h8.533v1.348c-10.146,3.362-17.067,12.681-17.067,24.252
        v31.667c0,2.978,1.553,5.743,4.105,7.287c4.104,2.5,8.346,3.712,12.962,3.712c14.114,0,25.6-11.486,25.6-25.498
        c0.102-3.942,1.664-8.636,8.533-8.636s8.431,4.693,8.533,8.533c0,14.114,11.486,25.6,25.6,25.6c14.114,0,25.6-11.486,25.6-25.498
        c0.102-3.942,1.664-8.636,8.533-8.636s8.431,4.693,8.533,8.533c0,14.114,11.486,25.6,25.6,25.6c14.114,0,25.6-11.486,25.6-25.498
        c0.102-3.942,1.664-8.636,8.533-8.636s8.431,4.693,8.533,8.533c0,14.114,11.486,25.6,25.6,25.6s25.6-11.486,25.6-25.498
        c0.102-3.942,1.664-8.636,8.533-8.636s8.431,4.693,8.533,8.533c0,14.114,11.486,25.6,25.6,25.6s25.6-11.486,25.6-25.498
        c0.102-3.942,1.664-8.636,8.533-8.636c6.869,0,8.431,4.693,8.533,8.533c0,14.114,11.486,25.6,25.6,25.6
        c4.668,0,8.815-1.246,13.065-3.908c2.492-1.553,4.002-4.284,4.002-7.228V93.867c0-11.349-7.031-20.753-17.067-24.192v-1.408
        H435.2z M418.133,85.333c5.538,0,8.533,4.395,8.533,8.533v25.6c-4.702,0-8.533-3.831-8.533-8.533c0-10.291-6.818-25.6-25.6-25.6
        s-25.6,15.309-25.6,25.6c0,4.702-3.831,8.533-8.533,8.533s-8.533-3.831-8.533-8.533c0-10.291-6.818-25.6-25.6-25.6
        s-25.6,15.309-25.6,25.6c0,4.702-3.831,8.533-8.533,8.533c-4.702,0-8.533-3.831-8.533-8.533c0-10.291-6.818-25.6-25.6-25.6
        s-25.6,15.309-25.6,25.6c0,4.702-3.831,8.533-8.533,8.533c-4.702,0-8.533-3.831-8.533-8.533c0-10.291-6.818-25.6-25.6-25.6
        s-25.6,15.309-25.6,25.6c0,4.702-3.831,8.533-8.533,8.533c-4.702,0-8.533-3.831-8.533-8.533c0-10.291-6.818-25.6-25.6-25.6
        s-25.6,15.309-25.6,25.6c0,4.702-3.831,8.533-8.533,8.533v-25.6c0-4.25,2.637-8.533,8.533-8.533c4.71,0,8.533-3.823,8.533-8.533
        v-8.525l281.591,0.35H384c4.71,0,8.533-3.814,8.533-8.525c0-4.719-3.806-8.542-8.525-8.542L93.875,51.2h-0.009h-8.533V25.6
        c0-4.702,3.831-8.533,8.533-8.533h324.267c4.702,0,8.533,3.831,8.533,8.533v25.6h-8.533c-4.71,0-8.533,3.823-8.533,8.533V76.8
        C409.6,81.51,413.423,85.333,418.133,85.333z"/>

    </g>
  </g>
</g>
<g>
</g>
<g>
</g>
<g>
</g>
<g>
</g>
<g>
</g>
<g>
</g>
<g>
</g>
<g>
</g>
<g>
</g>
<g>
</g>
<g>
</g>
<g>
</g>
<g>
</g>
<g>
</g>
<g>
</g>
</svg>
